<?xml version="1.0" encoding="utf-8"?>
<!-- Generator: Adobe Illustrator 19.0.0, SVG Export Plug-In . SVG Version: 6.00 Build 0)  -->
<svg version="1.1" id="Capa_1" xmlns="http://www.w3.org/2000/svg" xmlns:xlink="http://www.w3.org/1999/xlink" x="0px" y="0px"
	 viewBox="-41 164.9 512 512" style="enable-background:new -41 164.9 512 512;" xml:space="preserve">
<style type="text/css">
	.st0{fill:#FFFFFF;}
</style>
<title></title>
<g id="icomoon-ignore">
</g>
<path class="st0" d="M466.3,576.2C466.3,576.2,466.3,576.2,466.3,576.2L311,420.9l155.3-155.3c0,0,0,0,0,0c1.7-1.7,2.9-3.6,3.7-5.7
	c2.1-5.7,0.9-12.3-3.7-16.9L393,169.6c-4.6-4.6-11.2-5.8-16.9-3.7c-2.1,0.8-4,2-5.7,3.7c0,0,0,0,0,0L215,324.9L59.7,169.6
	c0,0,0,0,0,0c-1.7-1.7-3.6-2.9-5.7-3.7c-5.7-2.1-12.3-0.9-16.9,3.7l-73.4,73.4c-4.6,4.6-5.8,11.2-3.7,16.9c0.8,2.1,2,4,3.7,5.7
	c0,0,0,0,0,0L119,420.9L-36.3,576.2c0,0,0,0,0,0c-1.7,1.7-2.9,3.6-3.7,5.7c-2.1,5.7-0.9,12.3,3.7,16.9l73.4,73.4
	c4.6,4.6,11.2,5.8,16.9,3.7c2.1-0.8,4-2,5.7-3.7c0,0,0,0,0,0L215,516.9l155.3,155.3c0,0,0,0,0,0c1.7,1.7,3.6,2.9,5.7,3.7
	c5.7,2.1,12.3,0.9,16.9-3.7l73.4-73.4c4.6-4.6,5.8-11.2,3.7-16.9C469.2,579.8,468,577.9,466.3,576.2L466.3,576.2z"/>
</svg>
