<?xml version="1.0" encoding="utf-8"?>
<!-- Generator: Adobe Illustrator 19.0.0, SVG Export Plug-In . SVG Version: 6.00 Build 0)  -->
<svg version="1.1" id="Capa_1" xmlns="http://www.w3.org/2000/svg" xmlns:xlink="http://www.w3.org/1999/xlink" x="0px" y="0px"
	 viewBox="0 0 23.9 34.9" style="enable-background:new 0 0 23.9 34.9;" xml:space="preserve">
<style type="text/css">
	.st0{fill:#4887B5;}
</style>
<path id="XMLID_1324_" class="st0" d="M12,5.7c-4,0-7.3,3.3-7.3,7.3c0,7.3,7.3,16.1,7.3,16.1s7.3-8.8,7.3-16.1C19.3,9,16,5.7,12,5.7
	z M12,17.5c-2.5,0-4.5-2-4.5-4.5s2-4.5,4.5-4.5s4.5,2,4.5,4.5S14.4,17.5,12,17.5z M9.1,13c0-1.6,1.3-2.8,2.8-2.8s2.8,1.3,2.8,2.8
	s-1.3,2.8-2.8,2.8S9.1,14.6,9.1,13z"/>
</svg>
