<?xml version="1.0" encoding="utf-8"?>
<!-- Generator: Adobe Illustrator 19.0.0, SVG Export Plug-In . SVG Version: 6.00 Build 0)  -->
<svg version="1.1" id="Capa_1" xmlns="http://www.w3.org/2000/svg" xmlns:xlink="http://www.w3.org/1999/xlink" x="0px" y="0px"
	 viewBox="0 0 147.7 36.8" style="enable-background:new 0 0 147.7 36.8;" xml:space="preserve">
<style type="text/css">
	.st0{fill:#EFEFEF;}
</style>
<g id="XMLID_1309_">
	<path id="XMLID_378_" class="st0" d="M19,5.9c-3.4,0-3.8,0-5.2,0.1c-1.3,0.1-2.2,0.3-3,0.6C10,6.9,9.3,7.3,8.6,8s-1.1,1.4-1.4,2.2
		c-0.3,0.8-0.5,1.7-0.6,3c-0.1,1.3-0.1,1.8-0.1,5.2s0,3.8,0.1,5.2c0.1,1.3,0.3,2.2,0.6,3c0.3,0.8,0.7,1.5,1.4,2.2
		c0.7,0.7,1.4,1.1,2.2,1.4c0.8,0.3,1.7,0.5,3,0.6c1.3,0.1,1.8,0.1,5.2,0.1s3.8,0,5.2-0.1c1.3-0.1,2.2-0.3,3-0.6
		c0.8-0.3,1.5-0.7,2.2-1.4c0.7-0.7,1.1-1.4,1.4-2.2c0.3-0.8,0.5-1.7,0.6-3c0.1-1.3,0.1-1.8,0.1-5.2s0-3.8-0.1-5.2
		c-0.1-1.3-0.3-2.2-0.6-3c-0.3-0.8-0.7-1.5-1.4-2.2c-0.7-0.7-1.4-1.1-2.2-1.4c-0.8-0.3-1.7-0.5-3-0.6C22.9,5.9,22.4,5.9,19,5.9
		L19,5.9z M19,8.2c3.3,0,3.7,0,5.1,0.1c1.2,0.1,1.9,0.3,2.3,0.4c0.6,0.2,1,0.5,1.4,0.9c0.4,0.4,0.7,0.9,0.9,1.4
		c0.2,0.4,0.4,1.1,0.4,2.3c0.1,1.3,0.1,1.7,0.1,5.1s0,3.7-0.1,5.1c-0.1,1.2-0.3,1.9-0.4,2.3c-0.2,0.6-0.5,1-0.9,1.4
		c-0.4,0.4-0.9,0.7-1.4,0.9c-0.4,0.2-1.1,0.4-2.3,0.4c-1.3,0.1-1.7,0.1-5.1,0.1c-3.3,0-3.7,0-5.1-0.1c-1.2-0.1-1.9-0.3-2.3-0.4
		c-0.6-0.2-1-0.5-1.4-0.9c-0.4-0.4-0.7-0.9-0.9-1.4c-0.2-0.4-0.4-1.1-0.4-2.3c0-1.3-0.1-1.7-0.1-5c0-3.3,0-3.7,0.1-5.1
		c0.1-1.2,0.3-1.9,0.4-2.3c0.2-0.6,0.5-1,0.9-1.4c0.4-0.4,0.8-0.7,1.4-0.9c0.4-0.2,1.1-0.4,2.3-0.4C15.3,8.2,15.6,8.1,19,8.2L19,8.2
		L19,8.2z M19,12c-3.5,0-6.4,2.9-6.4,6.4c0,3.5,2.9,6.4,6.4,6.4c3.5,0,6.4-2.9,6.4-6.4C25.4,14.9,22.6,12,19,12L19,12z M19,22.6
		c-2.3,0-4.2-1.9-4.2-4.2s1.9-4.2,4.2-4.2s4.2,1.9,4.2,4.2S21.3,22.6,19,22.6z M27.2,11.8c0,0.8-0.7,1.5-1.5,1.5
		c-0.8,0-1.5-0.7-1.5-1.5c0-0.8,0.7-1.5,1.5-1.5C26.5,10.3,27.2,10.9,27.2,11.8z"/>
	<path id="XMLID_377_" class="st0" d="M66.3,5.9H44c-0.8,0-1.4,0.6-1.4,1.4v22.2c0,0.8,0.6,1.4,1.4,1.4h12v-9.7h-3.3v-3.8H56v-2.8
		c0-3.2,2-5,4.9-5c1.4,0,2.6,0.1,2.9,0.1v3.4h-2c-1.6,0-1.9,0.8-1.9,1.8v2.4h3.7l-0.5,3.8h-3.2v9.7h6.4c0.8,0,1.4-0.6,1.4-1.4V7.3
		C67.6,6.5,67,5.9,66.3,5.9L66.3,5.9z"/>
	<path id="XMLID_357_" class="st0" d="M96.7,20.9c-0.3-0.2-1.8-0.9-2.1-1c-0.3-0.1-0.5-0.2-0.7,0.2c-0.2,0.3-0.8,1-1,1.2
		c-0.2,0.2-0.4,0.2-0.7,0.1c-0.3-0.2-1.3-0.5-2.5-1.5C88.8,19,88.2,18,88,17.6c-0.2-0.3,0-0.5,0.1-0.6c0.1-0.1,0.3-0.4,0.5-0.5
		c0.2-0.2,0.2-0.3,0.3-0.5c0.1-0.2,0.1-0.4,0-0.5c-0.1-0.2-0.7-1.7-1-2.3c-0.3-0.6-0.5-0.5-0.7-0.5c-0.2,0-0.4,0-0.6,0
		c-0.2,0-0.5,0.1-0.8,0.4c-0.3,0.3-1.1,1.1-1.1,2.6s1.1,3,1.3,3.2c0.2,0.2,2.2,3.3,5.3,4.7c0.7,0.3,1.3,0.5,1.8,0.7
		c0.7,0.2,1.4,0.2,2,0.1c0.6-0.1,1.8-0.8,2.1-1.5c0.3-0.7,0.3-1.3,0.2-1.5C97.3,21,97.1,21,96.7,20.9L96.7,20.9z M91.1,28.6
		L91.1,28.6c-1.9,0-3.7-0.5-5.3-1.4l-0.4-0.2l-3.9,1l1-3.8l-0.2-0.4c-1-1.6-1.6-3.5-1.6-5.5C80.7,12.6,85.4,8,91.1,8
		c2.8,0,5.4,1.1,7.3,3c2,1.9,3,4.5,3,7.3C101.4,24,96.8,28.6,91.1,28.6L91.1,28.6z M99.9,9.5c-2.4-2.3-5.5-3.6-8.8-3.6
		c-6.9,0-12.4,5.6-12.4,12.4c0,2.2,0.6,4.3,1.7,6.2l-1.8,6.4l6.6-1.7c1.8,1,3.9,1.5,5.9,1.5h0c6.9,0,12.4-5.6,12.4-12.4
		C103.5,15,102.2,11.9,99.9,9.5L99.9,9.5z"/>
	<path id="XMLID_350_" class="st0" d="M140.5,11.2c-0.4-1.3-1.3-2.2-2.6-2.6l0,0c-2.3-0.6-11.7-0.6-11.7-0.6s-9.4,0-11.7,0.6
		c-1.3,0.4-2.2,1.3-2.6,2.6l0,0c-0.4,2.1-0.7,4.6-0.7,7.1c0,0.1,0,0.1,0,0.2l0,0c0,0,0,0.1,0,0.1c0,2.5,0.2,5,0.7,7.4l0-0.2
		c0.4,1.3,1.3,2.2,2.6,2.6l0,0c2.3,0.6,11.7,0.6,11.7,0.6s9.4,0,11.7-0.6c1.3-0.4,2.2-1.3,2.6-2.6l0,0c0.4-2.1,0.6-4.5,0.6-7
		c0-0.1,0-0.2,0-0.3l0,0c0-0.1,0-0.2,0-0.3c0-2.5-0.2-4.9-0.7-7.2L140.5,11.2L140.5,11.2z M123.1,22.9v-9l7.8,4.5L123.1,22.9z"/>
</g>
</svg>
