<?xml version="1.0" encoding="utf-8"?>
<!-- Generator: Adobe Illustrator 19.0.0, SVG Export Plug-In . SVG Version: 6.00 Build 0)  -->
<svg version="1.1" id="Capa_1" xmlns="http://www.w3.org/2000/svg" xmlns:xlink="http://www.w3.org/1999/xlink" x="0px" y="0px"
	 viewBox="-41 164.9 512 512" style="enable-background:new -41 164.9 512 512;" xml:space="preserve">
<style type="text/css">
	.st0{fill:#333333;}
</style>
<title></title>
<g id="icomoon-ignore">
</g>
<path class="st0" d="M455.1,600.6L333.9,497.4c-12.5-11.3-25.9-16.5-36.8-16c28.6-33.5,45.9-77,45.9-124.6c0-106-86-192-192-192
	s-192,86-192,192s86,192,192,192c47.5,0,91.1-17.3,124.6-45.9c-0.5,10.8,4.7,24.2,16,36.8L394.7,661c17.7,19.6,46.5,21.3,64.1,3.7
	C476.4,647.1,474.8,618.2,455.1,600.6L455.1,600.6z M151,484.9c-70.7,0-128-57.3-128-128s57.3-128,128-128s128,57.3,128,128
	S221.7,484.9,151,484.9z"/>
</svg>
